<?xml version="1.0" standalone="no"?>
<!DOCTYPE svg PUBLIC "-//W3C//DTD SVG 20010904//EN"
 "http://www.w3.org/TR/2001/REC-SVG-20010904/DTD/svg10.dtd">
<svg version="1.0" xmlns="http://www.w3.org/2000/svg"
 width="500.000000pt" height="500.000000pt" viewBox="0 0 500.000000 500.000000"
 preserveAspectRatio="xMidYMid meet">
<metadata>
Created by potrace 1.14, written by Peter Selinger 2001-2017
</metadata>
<g transform="translate(0.000000,500.000000) scale(0.100000,-0.100000)"
fill="#000000" stroke="none">
<path d="M1741 4750 c-45 -15 -141 -93 -141 -114 0 -4 -34 -41 -75 -83 -41
-42 -73 -79 -70 -81 14 -14 -54 -42 -101 -42 -34 0 -56 -5 -64 -15 -7 -8 -18
-15 -24 -14 -18 3 -76 -22 -76 -33 0 -5 -4 -7 -9 -3 -5 3 -16 -2 -24 -10 -9
-8 -20 -15 -26 -15 -6 0 -11 -4 -11 -10 0 -5 -7 -10 -15 -10 -7 0 -19 -8 -24
-17 -6 -10 -11 -14 -11 -9 0 5 -16 -7 -35 -27 -20 -21 -39 -37 -43 -37 -13 -1
-52 -38 -52 -49 0 -6 -4 -10 -8 -8 -10 3 -112 -93 -112 -105 0 -5 -9 -19 -20
-30 -27 -29 -56 -133 -41 -142 13 -8 5 -84 -12 -126 -10 -22 -14 -139 -5 -142
4 -2 9 -13 11 -25 2 -13 13 -35 26 -50 12 -16 33 -46 47 -69 20 -33 22 -46 14
-73 -14 -51 -5 -200 16 -248 10 -24 22 -43 26 -43 5 0 8 -6 8 -14 0 -8 5 -16
10 -18 13 -4 20 -36 24 -118 2 -36 13 -92 24 -125 22 -63 69 -227 82 -283 8
-32 7 -33 -18 -30 -15 1 -32 6 -38 10 -6 4 -26 -5 -45 -21 -33 -28 -34 -31
-34 -97 1 -71 5 -100 18 -121 5 -7 5 -13 2 -13 -4 0 3 -16 15 -35 12 -19 19
-35 16 -35 -4 0 5 -21 19 -47 14 -27 25 -53 25 -60 0 -6 3 -13 8 -15 4 -1 31
-50 60 -108 40 -79 63 -112 92 -132 40 -29 70 -36 70 -16 0 6 3 8 6 5 4 -3 14
-2 24 3 14 8 19 2 30 -30 7 -22 17 -40 22 -40 4 0 8 -5 8 -10 0 -11 10 -24 43
-61 9 -10 17 -23 17 -28 0 -5 33 -42 73 -81 90 -90 99 -97 172 -151 33 -24 62
-47 63 -51 2 -5 8 -8 13 -8 6 0 19 -9 31 -20 12 -11 28 -20 35 -20 7 0 13 -4
13 -9 0 -5 9 -13 20 -16 11 -3 26 -12 32 -19 7 -6 33 -21 58 -32 40 -19 60
-25 120 -41 24 -6 193 -5 220 2 14 3 43 8 65 10 88 7 276 78 318 119 7 7 30
25 52 41 48 36 302 285 291 285 -5 0 3 9 18 21 14 11 26 26 26 34 0 7 3 15 8
17 23 10 136 211 125 222 -4 3 -1 6 5 6 5 0 21 27 34 61 27 70 51 100 75 94
10 -3 34 -8 53 -13 39 -10 88 3 108 27 20 24 63 118 65 141 1 11 5 20 9 20 4
0 7 3 6 8 -4 17 15 72 25 72 7 0 6 4 -3 10 -12 8 -12 10 -1 10 8 0 12 2 9 6
-3 3 -1 22 4 42 51 200 36 336 -43 395 -45 33 -93 32 -128 -4 -23 -22 -30 -25
-35 -14 -3 8 -3 21 -1 28 3 6 7 73 10 147 3 74 7 160 9 190 2 30 1 60 -3 65
-3 6 -7 18 -8 28 -2 9 -14 43 -26 75 -13 31 -28 66 -32 77 -13 33 -13 87 2
145 23 93 24 102 28 200 2 55 -1 100 -7 108 -6 6 -8 12 -4 12 7 0 -20 55 -38
77 -45 56 -97 81 -117 57 -7 -9 -8 -14 -1 -14 6 0 10 -12 9 -27 -1 -16 -7 -26
-12 -23 -5 3 -8 11 -7 19 3 13 -8 47 -34 106 -7 17 -46 62 -87 102 -41 39 -77
79 -80 87 -4 9 -13 16 -22 16 -8 0 -15 4 -15 9 0 15 -60 42 -119 55 -30 6 -56
17 -58 23 -3 7 11 28 31 48 43 42 70 114 56 149 -17 46 -60 38 -99 -19 -13
-19 -27 -32 -32 -29 -5 3 -9 0 -9 -7 0 -14 -107 -5 -135 13 -5 3 -32 18 -60
34 -27 15 -57 31 -65 36 -15 8 -70 29 -80 30 -3 0 -16 5 -30 10 -34 13 -100
17 -100 6 0 -5 -6 -6 -12 -1 -19 11 -37 12 -43 3 -6 -9 -75 7 -90 21 -5 5 -17
9 -27 9 -10 0 -18 5 -18 12 0 6 -3 9 -6 6 -3 -3 -31 3 -61 14 -77 27 -112 28
-172 8z"/>
<path d="M3948 2335 c-2 -3 -13 -6 -24 -8 -71 -14 -139 -77 -184 -171 -34 -72
-42 -113 -39 -211 1 -38 1 -77 0 -85 -1 -8 -1 -24 -1 -35 -1 -52 -20 -81 -75
-110 l-55 -29 -78 19 c-96 23 -99 24 -143 28 -20 2 -40 6 -45 9 -17 10 -147 6
-173 -5 -53 -22 -90 -80 -85 -134 1 -13 2 -31 3 -42 0 -10 14 -32 31 -47 19
-19 26 -34 21 -43 -5 -7 -11 -12 -15 -12 -19 3 -27 -1 -54 -26 -51 -48 -58
-113 -20 -169 13 -19 28 -34 34 -34 7 0 14 -6 16 -13 7 -17 -2 -38 -12 -32 -5
3 -11 -4 -15 -15 -4 -11 -11 -18 -16 -15 -5 4 -9 0 -10 -7 0 -7 -2 -22 -5 -33
-14 -64 3 -119 41 -137 14 -6 25 -15 25 -20 0 -4 7 -8 15 -8 8 0 15 -4 15 -9
0 -5 -7 -14 -15 -21 -8 -7 -15 -19 -15 -26 0 -8 -4 -14 -9 -14 -4 0 -8 -20 -8
-45 0 -25 4 -45 8 -45 5 0 9 -6 9 -13 0 -23 75 -77 106 -77 8 0 14 -4 14 -8 0
-9 64 -32 105 -39 11 -2 27 -6 35 -10 8 -3 28 -8 45 -10 16 -3 38 -9 48 -15
14 -7 17 -7 12 1 -5 9 2 10 22 4 45 -12 139 -8 278 12 47 6 156 30 163 35 1 2
5 3 10 4 4 1 13 5 20 9 6 5 12 6 12 3 0 -3 24 7 54 23 30 17 57 27 60 24 3 -4
6 -2 6 3 0 5 29 32 65 59 35 28 65 55 65 61 0 6 9 19 20 29 11 10 22 27 26 38
4 12 12 27 19 34 27 27 59 146 59 223 0 75 -20 186 -36 196 -4 3 -8 14 -8 25
0 10 -4 19 -10 19 -5 0 -10 5 -10 10 0 6 -30 59 -67 118 -91 144 -92 144 -99
165 -3 9 -11 17 -16 17 -5 0 -6 5 -3 10 3 6 1 10 -4 10 -6 0 -10 3 -9 8 1 4
-4 24 -11 46 -9 26 -11 59 -7 105 4 36 8 72 8 79 1 6 5 12 10 12 4 0 7 3 6 8
-1 4 4 23 11 42 8 19 13 38 12 43 0 4 4 7 9 7 5 0 9 3 8 8 0 4 2 14 5 22 32
73 35 97 19 130 -11 22 -30 38 -60 51 -44 19 -106 32 -114 24z"/>
</g>
</svg>
